<svg xmlns="http://www.w3.org/2000/svg" xmlns:xlink="http://www.w3.org/1999/xlink" version="1.1" x="0px" y="0px" viewBox="0 0 100 125" style="enable-background:new 0 0 100 100;" xml:space="preserve"><path d="M78.3901367,87.5v-75c0-0.4970703-0.402832-0.8999023-0.8999023-0.8999023H22.5097656  c-0.4970703,0-0.8999023,0.402832-0.8999023,0.8999023v65.7700195c0,0.0195923,0.0099487,0.0371094,0.0112305,0.0565796  c0.005127,0.0791016,0.0202637,0.1552734,0.0458374,0.2303467c0.0100708,0.029541,0.0177002,0.0582275,0.0307617,0.0864868  c0.0437622,0.0953369,0.098877,0.1858521,0.1758423,0.2628174l9.2304688,9.2299805  c0.0846558,0.0848999,0.1846924,0.1507568,0.293457,0.1955566c0.1088257,0.0447998,0.2252808,0.0681152,0.3427734,0.0681152h45.75  C77.9873047,88.3999023,78.3901367,87.9970703,78.3901367,87.5z M30.840332,85.3271484l-6.1577148-6.1572266h6.1577148V85.3271484z   M76.590332,86.6000977H32.6401367v-8.3300781c0-0.4970703-0.402832-0.8999023-0.8999023-0.8999023H23.409668V13.3999023H76.590332  V86.6000977z"/><path d="M29.9365234,31.8662109h17.1020508c0.4970703,0,0.8999023-0.402832,0.8999023-0.8999023  s-0.402832-0.8999023-0.8999023-0.8999023H29.9365234c-0.4970703,0-0.8999023,0.402832-0.8999023,0.8999023  S29.4394531,31.8662109,29.9365234,31.8662109z"/><path d="M29.9365234,40.9956055h21.5986328c0.4970703,0,0.8999023-0.402832,0.8999023-0.8999023  s-0.402832-0.8999023-0.8999023-0.8999023H29.9365234c-0.4970703,0-0.8999023,0.402832-0.8999023,0.8999023  S29.4394531,40.9956055,29.9365234,40.9956055z"/><path d="M29.9365234,50.1254883h24.987793c0.4970703,0,0.8999023-0.402832,0.8999023-0.8999023  s-0.402832-0.8999023-0.8999023-0.8999023h-24.987793c-0.4970703,0-0.8999023,0.402832-0.8999023,0.8999023  S29.4394531,50.1254883,29.9365234,50.1254883z"/><path d="M29.9365234,59.2548828h26.3129883c0.4970703,0,0.8999023-0.402832,0.8999023-0.8999023  s-0.402832-0.8999023-0.8999023-0.8999023H29.9365234c-0.4970703,0-0.8999023,0.402832-0.8999023,0.8999023  S29.4394531,59.2548828,29.9365234,59.2548828z"/><path d="M29.9365234,68.3847656h27.8857422c0.4970703,0,0.8999023-0.402832,0.8999023-0.8999023  s-0.402832-0.8999023-0.8999023-0.8999023H29.9365234c-0.4970703,0-0.8999023,0.402832-0.8999023,0.8999023  S29.4394531,68.3847656,29.9365234,68.3847656z"/><path d="M62.4941406,69.965332c0.0292969,0.1323242,0.0883789,0.2568359,0.1723633,0.3632813l4.8710938,6.1679688  c0.1728516,0.2192383,0.4345703,0.3422852,0.706543,0.3422852c0.0644531,0,0.1293945-0.0068359,0.1943359-0.0209961  c0.3369141-0.074707,0.6015625-0.3349609,0.6811523-0.6704102l1.8193359-7.6459961  c0.0317383-0.1323242,0.0327148-0.2700195,0.003418-0.402832l-9.7719727-44.2319336  c-0.1074219-0.4853516-0.5913086-0.7900391-1.0732422-0.6845703l-6.6904297,1.4780273  c-0.2329102,0.0517578-0.4360352,0.1933594-0.5644531,0.3945313C52.7138672,25.2563477,52.6708984,25.5,52.722168,25.7333984  L62.4941406,69.965332z M59.6069336,25.1337891l9.5332031,43.1518555l-1.3413086,5.637207L64.2075195,69.375l-9.5336914-43.1513672  L59.6069336,25.1337891z"/><text x="0" y="115" fill="#000000" font-size="5px" font-weight="bold" font-family="'Helvetica Neue', Helvetica, Arial-Unicode, Arial, Sans-serif">Created by Edwin PM</text><text x="0" y="120" fill="#000000" font-size="5px" font-weight="bold" font-family="'Helvetica Neue', Helvetica, Arial-Unicode, Arial, Sans-serif">from the Noun Project</text></svg>